<svg width="12" height="12" viewBox="0 0 12 12" fill="none" xmlns="http://www.w3.org/2000/svg">
<path d="M4.26696 2.48495C4.16315 2.48302 4.06131 2.51341 3.97553 2.57191C3.88975 2.6304 3.82428 2.71412 3.78816 2.81146C3.75205 2.9088 3.74708 3.01496 3.77395 3.11525C3.80082 3.21554 3.8582 3.305 3.93814 3.37125L6.99767 5.99046L3.93625 8.60967C3.88033 8.65045 3.83345 8.70237 3.7986 8.76216C3.76375 8.82196 3.74167 8.88833 3.73375 8.95709C3.72584 9.02585 3.73226 9.0955 3.75262 9.16165C3.77298 9.2278 3.80683 9.28902 3.85204 9.34143C3.89724 9.39384 3.95282 9.43631 4.01526 9.46616C4.07771 9.49601 4.14566 9.5126 4.21484 9.51487C4.28401 9.51714 4.35291 9.50504 4.41717 9.47935C4.48144 9.45365 4.53968 9.41491 4.58822 9.36558L8.08807 6.37408C8.14311 6.32707 8.1873 6.26868 8.2176 6.20295C8.24791 6.13721 8.2636 6.06568 8.2636 5.9933C8.2636 5.92091 8.24791 5.84938 8.2176 5.78365C8.1873 5.71791 8.14311 5.65952 8.08807 5.61251L4.58822 2.61156C4.49953 2.53261 4.38567 2.48773 4.26696 2.48495Z" fill="#9E9E9E"/>
</svg>
