<svg width="60" height="60" viewBox="0 0 60 60" fill="none" xmlns="http://www.w3.org/2000/svg">
<g clip-path="url(#clip0_71_2061)">
<path d="M37.0097 8.78908C37.0097 12.6723 33.8617 15.8203 29.9785 15.8203C26.0953 15.8203 22.9473 12.6723 22.9473 8.78908C22.9473 4.90585 26.0953 1.75785 29.9785 1.75785C33.8617 1.75785 37.0097 4.90585 37.0097 8.78908Z" stroke="#9E9E9E" stroke-width="1.6" stroke-miterlimit="10"/>
<path d="M5.27463 39.8481C8.63755 37.9064 12.9378 39.0587 14.8794 42.4216C16.8211 45.7847 15.6688 50.0849 12.3059 52.0265C8.94282 53.9682 4.64264 52.8159 2.70096 49.4529C0.759405 46.0899 1.91159 41.7896 5.27463 39.8481Z" stroke="#9E9E9E" stroke-width="1.6" stroke-miterlimit="10"/>
<path d="M47.6945 51.7921C44.3316 49.8506 43.1793 45.5503 45.1209 42.1874C47.0625 38.8243 51.3628 37.672 54.7257 39.6137C58.0888 41.5554 59.2409 45.8556 57.2994 49.2186C55.3577 52.5815 51.0575 53.7338 47.6945 51.7921Z" stroke="#9E9E9E" stroke-width="1.6" stroke-miterlimit="10"/>
<path d="M43.375 12.8055C50.0787 17.2019 54.5059 24.7833 54.5059 33.3989C54.5059 35.3885 54.2699 37.3229 53.8241 39.1758" stroke="#9E9E9E" stroke-width="1.6" stroke-miterlimit="10"/>
<path d="M41.1951 55.6065C37.8621 57.2924 34.0933 58.2422 30.1029 58.2422C23.5279 58.2422 17.5551 55.6637 13.1406 51.4628" stroke="#9E9E9E" stroke-width="1.6" stroke-miterlimit="10"/>
<path d="M5.4082 32.0234C5.99004 21.4563 13.2385 12.6659 23.0189 9.78717" stroke="#9E9E9E" stroke-width="1.6" stroke-miterlimit="10"/>
</g>
<defs>
<clipPath id="clip0_71_2061">
<rect width="60" height="60" fill="white"/>
</clipPath>
</defs>
</svg>
