<svg width="47" height="47" viewBox="0 0 47 47" fill="none" xmlns="http://www.w3.org/2000/svg">
<path d="M23.3007 34.7373C23.3007 40.9505 18.2639 45.9873 12.0507 45.9873C5.83758 45.9873 0.800781 40.9505 0.800781 34.7373C0.800781 28.5242 5.83758 23.4874 12.0507 23.4874C18.2639 23.4874 23.3007 28.5242 23.3007 34.7373Z" stroke="#9E9E9E" stroke-width="1.6" stroke-miterlimit="10" stroke-linecap="round" stroke-linejoin="round"/>
<path d="M12.0508 45.9873H42.9882C44.5414 45.9873 45.8007 44.7281 45.8007 43.1748V10.1752L36.4261 0.799941H14.8633C13.31 0.799941 12.0508 2.05919 12.0508 3.61243V23.4874" stroke="#9E9E9E" stroke-width="1.6" stroke-miterlimit="10" stroke-linecap="round" stroke-linejoin="round"/>
<path d="M36.4258 0.799833V10.1748H45.8008L36.4258 0.799833Z" stroke="#9E9E9E" stroke-width="1.6" stroke-miterlimit="10" stroke-linecap="round" stroke-linejoin="round"/>
<path d="M19.4902 26.2998H39.2375" stroke="#9E9E9E" stroke-width="1.6" stroke-miterlimit="10" stroke-linecap="round" stroke-linejoin="round"/>
<path d="M18.6133 17.8623H39.2382" stroke="#9E9E9E" stroke-width="1.6" stroke-miterlimit="10" stroke-linecap="round" stroke-linejoin="round"/>
<path d="M23.3008 34.7373H39.2382" stroke="#9E9E9E" stroke-width="1.6" stroke-miterlimit="10" stroke-linecap="round" stroke-linejoin="round"/>
<path d="M7.26953 35.9561L10.082 38.7686L16.6445 32.2061" stroke="#9E9E9E" stroke-width="1.6" stroke-miterlimit="10" stroke-linecap="round" stroke-linejoin="round"/>
</svg>
